<?xml version="1.0" standalone="no"?>
<!DOCTYPE svg PUBLIC "-//W3C//DTD SVG 20010904//EN"
 "http://www.w3.org/TR/2001/REC-SVG-20010904/DTD/svg10.dtd">
<svg version="1.0" xmlns="http://www.w3.org/2000/svg"
 width="1024.000000pt" height="1024.000000pt" viewBox="0 0 1024.000000 1024.000000"
 preserveAspectRatio="xMidYMid meet">
<metadata>
Created by potrace 1.11, written by Peter Selinger 2001-2013
</metadata>
<g transform="translate(0.000000,1024.000000) scale(0.100000,-0.100000)"
fill="#000000" stroke="none">
<path d="M0 5120 l0 -5120 5120 0 5120 0 0 5120 0 5120 -5120 0 -5120 0 0
-5120z m6586 2720 c408 -21 953 -72 1071 -101 76 -19 141 -56 172 -99 42 -58
54 -115 49 -228 -9 -195 -93 -300 -275 -347 -77 -20 -156 -19 -320 5 -339 51
-367 52 -1080 57 -376 3 -683 3 -683 0 0 -45 -98 -1104 -130 -1405 -11 -101
-20 -185 -20 -187 0 -2 269 -5 598 -7 l597 -3 60 -25 c66 -28 117 -83 135
-148 14 -53 12 -178 -4 -240 -41 -153 -160 -253 -338 -282 -37 -6 -282 -10
-598 -10 l-535 0 -23 -172 c-61 -459 -140 -783 -254 -1043 -173 -393 -449
-656 -821 -780 -366 -122 -818 -122 -1157 0 -328 118 -621 346 -724 565 -27
57 -31 78 -34 170 -4 122 15 202 69 280 61 90 140 118 238 85 63 -21 129 -79
230 -204 222 -274 440 -391 723 -391 193 1 356 64 492 191 229 214 331 491
396 1075 11 98 20 189 20 200 0 21 -4 22 -187 26 -166 4 -195 7 -247 28 -81
31 -149 100 -170 171 -42 140 1 310 99 397 78 68 109 75 366 80 l226 4 6 51
c29 242 147 1478 147 1533 l0 27 -72 -7 c-264 -25 -594 -96 -748 -160 -101
-43 -210 -122 -262 -191 -75 -99 -107 -236 -88 -376 16 -118 35 -169 118 -323
36 -65 40 -108 16 -164 -56 -136 -279 -229 -459 -192 -124 26 -216 93 -269
197 -78 155 -118 339 -119 543 0 286 76 512 238 710 337 412 1120 649 2305
700 242 10 964 4 1246 -10z"/>
</g>
</svg>
